/* XPM */
static char *fe50fe3cea2c45abf7254743015408a3FfN52jcyIXyx3E96[] = {
/* columns rows colors chars-per-pixel */
"32 32 5 1 ",
"  c #25131A",
". c #362030",
"X c #3D253B",
"o c #90919E",
"O c #ADC1CF",
/* pixels */
"XXXXXXXXXXXXXXXXXXXXXXXXXXXXXXXX",
"XXXXXXXXXXXXXXXXXXXXXXXXXXXXXXXX",
"XXXXXXXX.XXXXXXXXXXXXXXXXXXXXXXX",
"XXXXXXXX.XXXXXXXXXXXXXXXXXXXXXXX",
"XXXXXXXX.XXXXXXXXXXXXXXXXXXXXXXX",
"X...........X.XXXXXXXXXXXXX.....",
".XXXXXXXXXXXXXXXXXXXXXXXXXXXXXXX",
".XXXXXXXXXXXXXXXXXXXXXXXXXXXXXXX",
".XXXXXXXXXXXXXXXXXXXXXXXXXXXXXXX",
".XXXXXXX.XXXXXXXXXXXXXXXXXXXXXXX",
".XXXXXXX.XXXXXXXXXXXXXXXXXXXXXXX",
"XXXXXXXX.XXXXXXXXXXXXXXXXXXXXXXX",
".XXXXXXX.........  XXXXXXXXXXXXX",
"XXXXXXXX.XXXXXXX Oo XXXXXXXXXXXX",
"XXXXXXXX.X      o  o XXXXXXXXXXX",
"XXXXXXXX.X ooooooX o XXXXXXXXXXX",
"XXXXXXXXXX OOO  OX o XXXXXXXXXXX",
"XXXXXXXXXX O OX OX O XXXXXXXXXXX",
".XXXXXXXXX OX XX OO XXXXXXXXXXXX",
".XXXXXXXXXX XXXXX  XXXXXXXXXXXXX",
".XXXXXXXXXXXXXXXXXXXXXXXXXXXXXXX",
".XXXXXXXXXXXXXXXXXXXXXXXXXXXXXXX",
"XXXXXXXXXXX.................X.XX",
"XXXXXXXXXXXXXXXX.XXXXXXX.XXXXXXX",
"XXXXXXXXXXXXXXXX.XXXXXXX.XXXXXXX",
"XXXXXXXXXXXXXXXX.XXXXXXX.XXXXXXX",
"XXXXXXXXXXXXXXXX.XXXXXXXXXXXXXXX",
"XXXXXXXXXXXXXXXX.XXXXXXXXXXXXXXX",
"X............X.XXXXXXXXXXXXXXXXX",
"XXXXXXXXXXXXXXXXXXXXXXXXXXXXXXXX",
"XXXXXXXXXXXXXXXXXXXXXXXXXXXXXXXX",
"XXXXXXXXXXXXXXXXXXXXXXXXXXXXXXXX"
};
