/* XPM */
static char *_27473bd1a114677cf87e89156bc699dV7mqmZVNxCK3x5Kb[] = {
/* columns rows colors chars-per-pixel */
"32 32 2 1 ",
"  c #362030",
". c #3D253B",
/* pixels */
"................................",
"................................",
"........ .......................",
"........ .......................",
"........ .......................",
".           . .............     ",
" ...............................",
" ...............................",
" ...............................",
" ....... .......................",
" ....... .......................",
"........ .......................",
" .......         ...............",
"........ ....... ...............",
"........ ....... ...............",
"........ .......................",
"................................",
"................................",
" ...............................",
" ...............................",
" ...............................",
" ...............................",
"...........                 . ..",
"................ ....... .......",
"................ ....... .......",
"................ ....... .......",
"................ ...............",
"................ ...............",
".            . .................",
"................................",
"................................",
"................................"
};
