/* XPM */
static char *eebb860fd4354d9ffd04bf465ced278c5DR3Fj41RDEvaTwJ[] = {
/* columns rows colors chars-per-pixel */
"32 32 26 1 ",
"  c #2E1E22",
". c #362030",
"X c #3D253B",
"o c #323234",
"O c #534721",
"+ c #505133",
"@ c #555836",
"# c #6E5E2C",
"$ c #545456",
"% c #635B4D",
"& c #6E6B4B",
"* c #736A64",
"= c #7D7375",
"- c #767678",
"; c #86826A",
": c #959963",
"> c #979799",
", c #A09B90",
"< c #A9AA86",
"1 c #BABE95",
"2 c #B1ABAD",
"3 c #B7B7BB",
"4 c #CDCDBB",
"5 c #E4E6D1",
"6 c #E5E3E3",
"7 c white",
/* pixels */
"XXXXXXXXXXXXXXXXXXXXXXXXXXXXXXXX",
"XXXXXXXXXXXXXXXXXXXXXXXXXXXXXXXX",
"XXXXXXXX.XX@@@@@@@XXXXXXXXXXXXXX",
"XXXXXXXX.@@::111::@@XXXXXXXXXXXX",
"XXXXXXXX@:115555511:@XXXXXXXXXXX",
"X......@:15555555551:@XXXXX.....",
".XXXXXX@1555777775551@XXXXXXXXXX",
".XXXXX@:1557777777551:@XXXXXXXXX",
".XXXXX@>11577777775111@XXXXXXXXX",
".XXXXX>7>5557777755551@XXXXXXXXX",
".XXXXX37>7775777577751@XXXXXXXXX",
"XXXXX>77>2267555762241@XXXXXXXXX",
".XXXX>77>  =67776=  *<@XXXXXXXXX",
"XXXXX>77>   27772    &@XXXXXXXXX",
"XXXXX>77>   27572    &@XXXXXXXXX",
"XXXXX>77>  =6:1:6=  %+XXXXooXXXX",
"XXXXX>77>;,6777776,;+@XXoo$oXXXX",
"XXXXX>77>@:@5:5:5@:@::oo$>$oXXXX",
".XXXX>77>1@@@@@@@@@157o3>$OoXXXX",
".XXXX>77>5777:::777515o3O#OoXXXX",
".XXXX>77>:::17571:::@@o3O#$oXXXX",
".XXoo$---$o771117751@Xo3>>$oXXXX",
"XXXo>>>>>-o:1:::1::@..o3>-OoX.XX",
"XXXXoo$ooo51@@:@@151@Xo3O#OoXXXX",
"XXXX@:51@:75:@1@:57:@Xo3O#$oXXXX",
"XXXXX@@@X@171:::171@XXXo>#oXXXXX",
"XXXXXXXXX@@:@@@@@17@XXXo$>oXXXXX",
"XXXXXXXXX@:1:@X@:51@XXXXooXXXXXX",
"X.........@@@X.:775@XXXXXXXXXXXX",
"XXXXXXXXXXXXXXX:777@XXXXXXXXXXXX",
"XXXXXXXXXXXXXXXXXXXXXXXXXXXXXXXX",
"XXXXXXXXXXXXXXXXXXXXXXXXXXXXXXXX"
};
