/* XPM */
static char *d32ff01189b04c52ea3e8e7ad05f15a7eaTDIGt28y0FKaUl[] = {
/* columns rows colors chars-per-pixel */
"32 32 27 1 ",
"  c #2E1E22",
". c #362030",
"X c #3D253B",
"o c #323234",
"O c #534721",
"+ c #505133",
"@ c #555836",
"# c #6E5E2C",
"$ c #545456",
"% c #635B4D",
"& c #6E6B4B",
"* c #736A64",
"= c #7D7375",
"- c #767678",
"; c #86826A",
": c #959963",
"> c #979799",
", c #A09B90",
"< c #A9AA86",
"1 c #BABE95",
"2 c #B1ABAD",
"3 c #B7B7BB",
"4 c #CDCDBB",
"5 c #D2D2D6",
"6 c #E4E6D1",
"7 c #E5E3E3",
"8 c white",
/* pixels */
"XXXXXXXXXXXXXXXXXXXXXXXXXXXXXXXX",
"XXXXXXXXXXXX@@@@@@@XXXXXXXXXXXXX",
"XXXXXXXX.X@@::111::@@XXXXXXXXXXX",
"XXXXXXXX.@:116666611:@XXXXXXXXXX",
"XXXXXXXX@:16666666661:@XXXXXXXXX",
"X.......@1666888886661@XXXX.....",
".XXXXXX@:1668888888661:@XXXXXXXX",
".>XXXXX@111688888886111@XXXXXXXX",
".>>XXXX@166668888866661@XXXXXXXX",
".>8>XXX@168886888688861@XXXXXXXX",
".>83XXX@142278666872241@XXXXXXXX",
"X>88>XX@<*  =78887=  *<@XXXXXXXX",
".>88>XX@&    28882    &@XXXXXXXX",
"X>58>XX@&    28682    &@XXXXXXXX",
"X>583XXX+%  =7:1:7=  %+XXXXXXXXX",
"XX>88>XX@+;,7888887,;+@XXXXXXXXX",
"XX>88>X@::@:@6:6:6@:@::@XXXoooXX",
"XX>58>@:861@@@@@@@@@168:ooo$-oXX",
".X>583@8::6888:::8886ooo$>--$oXX",
".XX>88ooo@:::18681:::o->3$O#$oXX",
".XX>88$>>o16881118861o-#O#O#$oXX",
".Xo$->>$oX@::1:::1::@o-#O#$-$oXX",
"Xo->>$$o@@161@@:@@161o->3>-$$oXX",
"XXooo86@X@:86:@1@:68:o->>-O#$oXX",
"XXXXX@@XXX@181:::181@o-#O#O#$oXX",
"XXXXXXXXXX@61@@@@@16@o->O#O#$oXX",
"XXXXXXXXXX@16:@X@:61@Xo$>#O$oXXX",
"XXXXXXXXXX@681@X@186@XXo$>-oXXXX",
"X.........@886@X@688@XXXoooXXXXX",
"XXXXXXXXXXX@@@XXX@@@XXXXXXXXXXXX",
"XXXXXXXXXXXXXXXXXXXXXXXXXXXXXXXX",
"XXXXXXXXXXXXXXXXXXXXXXXXXXXXXXXX"
};
