/* XPM */
static char *_505ef1cfbe547aec6f40549402b746f1gtfUwGTvT5lrb1p[] = {
/* columns rows colors chars-per-pixel */
"32 32 8 1 ",
"  c #25131A",
". c #3D253B",
"X c #724736",
"o c #523B40",
"O c #895A45",
"+ c #BF704D",
"@ c #90919E",
"# c #ADC1CF",
/* pixels */
".........      ..      .........",
".....    O++O+    +O++O    .....",
"...  +O++O++O+ ## +O++O++O+  ...",
".  O++O++      ##      ++O++O  .",
" ++O+    oOOoO    OoOOo    +O++ ",
" ++  OoOOoOOoO @# OoOOoOOoO  ++ ",
"   oOOoOOoOOoO @# OoOOoOOoOOo   ",
" ##@ OoOOoOOoO @#     oOOoO @## ",
" @##@ oOOoOOoO @@@@### OOo @##@ ",
"     OoOOoOOoO @@#   # OOoO     ",
" XXoOOoOOoOOoO @# O @## OoOOoOO ",
" ##@ OoOOoOOoO @# O@OO # oO @## ",
" @##@ oXXoXXoX @# X@XX @ o @##@ ",
"     XoXXoXXoX @# Xo@@@ XoX     ",
"   oOOoOOoOOoO @# OoOOoOOoOOo   ",
" ##@ OoOOoOOoO @#     oOOoO @## ",
" @##@ oOOoOOoO @@@@### OOo @##@ ",
"     OoOOoOOoO @@#   # OOoO     ",
" XXoOOoOOoOOoO @# O @## OoOOoOO ",
" ##@ OoOOoOOoO @# O@OO # oO @## ",
" @##@ oXXoXXoX @# X@XX @ o @##@ ",
"     XoXXoXXoX @# Xo@@@ XoX     ",
"   oOOoOOoOOoO @# OoOOoOOoOOo   ",
"     XoXXoXXoX @# XoOOoOXoX     ",
" ##@ OoOOoOOoO @#     oOOoO @## ",
" @##@ oOOoOOoO @@@@### OOo @##@ ",
"     OoOOoOOoO @@#   # OOoO     ",
" XXoOOoOOoOOoO @# O @## OoOOoOO ",
" ##@ OoOOoOOoO @# O@OO # oO @## ",
" @##@ oXXoXXoX @# X@XX @ o @##@ ",
"     XoXXoXXoX @# Xo@@@ XoX     ",
" XXoXXoXXoXXo @@## oXXoXXoXXoXX "
};
