/* XPM */
static char *_2ea57d886fe4d0af14712ebca2e0a821LoaaepQSXgsI9rF[] = {
/* columns rows colors chars-per-pixel */
"32 32 16 1 ",
"  c #232323",
". c #3D2D26",
"X c #362030",
"o c #3D253B",
"O c gray22",
"+ c #5E1F00",
"@ c #462F26",
"# c #69423A",
"$ c gray30",
"% c #7C5E4F",
"& c #8D3000",
"* c #C56400",
"= c #E17C00",
"- c #8A7461",
"; c #FF9500",
": c #FFB300",
/* pixels */
"ooooooooooo&&&&&&&&&oooooooooooo",
"ooooooooo&&***&;&***&&oooooooooo",
"ooooooo&&***&&*=*&&***&&oooooooo",
"oooooo&*=*;;=*&&&*=;;*=*&ooooooo",
"ooooo&*=*;;;=&***&=;;;*=*&oooooo",
"oXXX&*=*;:;=&=;;;=&=;:;*=*&XXXXX",
"Xooo&=*;;;;*=;;;;;=*;;;;*=&ooooo",
"Xoo&*=*;;;=*;;:::;;*=;;;*=*&oooo",
"Xoo&**;;;;*=;;:::;;=*;;;;**&oooo",
"Xoo&**=;;;*=;;;;;;;=*;;;=**&oooo",
"Xoo&**==;;+=;;;;;;;=+;;==**&oooo",
"ooo&**===+++;;;;;;;+++===**&oooo",
"Xoo&*&==+++++;;;;;+++++==&*&oooo",
"oooo&&==*++++==+==++++*==&&ooooo",
"oooo&&*===*===+++===*===*&&ooooo",
"ooooo&**+=*=========*=+**&oooooo",
"oooooo&**++==+++++==++**&ooooooo",
"ooooooo&**+++++++++++**&oooooooo",
"Xoooooo.&&*&*******&*&&.oooooooo",
"Xooooo.@-%&&&&&&&&&&&%-@.ooooooo",
"Xooooo.-%#%---%%%---%#%-.ooooooo",
"Xoooo.@%#.%----%----%.#%@.oooooo",
"ooooo.%%@.#%--###--%#.@%%.XXoXoo",
"oooo.@-#..@###%-%###@..#-@.ooooo",
"oooo.--@. #%%%---%%%# .@--.ooooo",
"oooo.-%.o. O$$$$$$$O .o.%-.ooooo",
"ooooo..oo.@- O$$$O -@.oo..oooooo",
"oooooooooo@#%#   #%#@ooooooooooo",
"oXXXXXXXXX.###.o.###.ooooooooooo",
"oooooooooo.%-%.o.%-%.ooooooooooo",
"oooooooooo.--%.o.%--.ooooooooooo",
"ooooooooooo...ooo...oooooooooooo"
};
